<?xml version="1.0" encoding="utf-8"?>
<!-- Generator: Adobe Illustrator 22.0.0, SVG Export Plug-In . SVG Version: 6.00 Build 0)  -->
<svg version="1.1" id="Layer_1" xmlns="http://www.w3.org/2000/svg" xmlns:xlink="http://www.w3.org/1999/xlink" x="0px" y="0px"
	 viewBox="0 0 117 117" style="enable-background:new 0 0 117 117;" xml:space="preserve">
<style type="text/css">
	.st0{fill:#201600;}
</style>
<g>
	<g>
		<path class="st0" d="M10.487,58.869c0.167-0.179,0.197-0.435,0.098-0.644c-0.024-0.09-0.061-0.177-0.129-0.25
			c-0.045-0.049-4.593-4.806-10.335-0.131c-0.199,0.162-0.256,0.426-0.17,0.654C-0.066,58.683-0.004,58.873,0.152,59
			c1.889,1.538,3.648,2.055,5.16,2.055C8.399,61.055,10.457,58.901,10.487,58.869z M1.289,58.41c3.876-2.837,6.941-0.83,7.959,0.027
			C8.201,59.314,5.157,61.265,1.289,58.41z"/>
		<path class="st0" d="M102.568,58.419c1.682-0.618,3.094-1.835,4.102-3.578c1.782-3.081,1.94-7.28,0.374-9.984
			c-1.156-1.997-2.959-3.011-4.95-2.779c-0.79,0.091-1.547,0.379-2.205,0.79c0.138-0.567,0.284-1.179,0.434-1.809
			c0.744-3.122,1.669-7.007,2.265-8.099c0.098-0.18,0.094-0.399-0.011-0.575c-0.105-0.176-0.294-0.285-0.5-0.285
			c-1.624,0-4.663-0.816-9.034-2.427c-0.453-0.167-0.916-0.314-1.382-0.452v-4.003H76.04c0.356-0.239,0.682-0.511,0.96-0.83
			c1.154-1.323,1.362-3.127,0.617-5.36c-0.062-0.187-0.216-0.33-0.407-0.379c-0.19-0.049-0.394,0.003-0.539,0.137
			c-2.326,2.161-2.593,4.639-2.503,6.078c-0.218,0.078-0.447,0.142-0.679,0.203c-0.822-2.045-1.989-3.927-3.334-5.643
			c1.005-0.85,3.092-2.923,3.026-5.452c-0.049-1.848-1.226-3.513-3.499-4.949c-2.108-1.331-4.824-1.14-7.265,0.512
			c-0.561,0.38-1.076,0.813-1.544,1.286c-0.424-0.317-0.831-0.618-1.212-0.898c-0.121-0.089-0.239-0.176-0.354-0.261
			c3.883-4.581-0.307-9.411-0.352-9.461c-0.121-0.136-0.29-0.193-0.458-0.187c-0.202-0.048-0.421,0.006-0.568,0.172
			c-0.044,0.05-4.234,4.88-0.352,9.46c-0.115,0.085-0.233,0.172-0.354,0.261c-0.38,0.28-0.788,0.581-1.212,0.898
			c-0.468-0.472-0.983-0.906-1.544-1.286C52.024,7.871,49.308,7.679,47.2,9.01c-2.273,1.435-3.45,3.1-3.499,4.949
			c-0.067,2.53,2.021,4.603,3.026,5.453c-1.345,1.714-2.512,3.597-3.334,5.642c-0.232-0.06-0.461-0.125-0.679-0.203
			c0.089-1.439-0.177-3.918-2.503-6.078c-0.145-0.134-0.348-0.186-0.539-0.137c-0.192,0.049-0.345,0.192-0.407,0.379
			c-0.744,2.233-0.536,4.036,0.617,5.36c0.284,0.325,0.618,0.603,0.982,0.845H25.422v3.929c-0.537,0.153-1.067,0.319-1.586,0.511
			c-4.371,1.61-7.41,2.427-9.034,2.427c-0.205,0-0.395,0.108-0.5,0.285c-0.105,0.176-0.109,0.395-0.011,0.575
			c0.596,1.092,1.521,4.978,2.265,8.099c0.15,0.63,0.296,1.243,0.434,1.809c-0.659-0.411-1.415-0.699-2.205-0.79
			c-1.986-0.229-3.794,0.783-4.95,2.779c-1.566,2.704-1.408,6.903,0.374,9.984c1.021,1.764,2.454,2.99,4.163,3.601
			c-1.695,0.615-3.117,1.836-4.131,3.589c-1.782,3.081-1.94,7.28-0.374,9.984c1.156,1.997,2.96,3.01,4.95,2.779
			c0.79-0.091,1.547-0.379,2.205-0.79c-0.138,0.567-0.284,1.179-0.434,1.809c-0.744,3.122-1.669,7.007-2.265,8.099
			c-0.098,0.18-0.094,0.399,0.011,0.575c0.105,0.176,0.294,0.285,0.5,0.285c1.624,0,4.663,0.817,9.034,2.427
			c0.509,0.187,1.028,0.351,1.554,0.502v3.772h15.735c-0.47,0.276-0.895,0.608-1.246,1.01c-1.154,1.323-1.362,3.127-0.617,5.36
			c0.062,0.187,0.216,0.33,0.407,0.379c0.191,0.05,0.394-0.002,0.539-0.137c2.326-2.161,2.593-4.639,2.503-6.078
			c0.218-0.078,0.447-0.142,0.679-0.203c0.822,2.045,1.989,3.927,3.334,5.642c-1.005,0.85-3.092,2.923-3.026,5.453
			c0.049,1.848,1.226,3.513,3.499,4.949c0.93,0.587,1.978,0.878,3.069,0.878c1.382,0,2.832-0.467,4.197-1.391
			c0.561-0.379,1.076-0.813,1.544-1.286c0.424,0.317,0.831,0.617,1.212,0.898c0.121,0.089,0.239,0.176,0.354,0.261
			c-3.883,4.581,0.307,9.411,0.352,9.461c0.115,0.129,0.274,0.195,0.435,0.195c0.041,0,0.081-0.013,0.121-0.022
			c0.012,0.001,0.024,0.007,0.036,0.007c0.16,0,0.32-0.066,0.434-0.195c0.044-0.05,4.234-4.88,0.352-9.461
			c0.115-0.085,0.234-0.172,0.354-0.261c0.38-0.28,0.788-0.581,1.212-0.898c0.468,0.472,0.983,0.906,1.544,1.286
			c1.365,0.923,2.815,1.391,4.197,1.391c1.091,0,2.139-0.291,3.069-0.878c2.273-1.435,3.45-3.1,3.499-4.949
			c0.067-2.53-2.021-4.603-3.026-5.452c1.345-1.715,2.512-3.598,3.334-5.642c0.232,0.06,0.461,0.125,0.679,0.203
			c-0.089,1.439,0.177,3.918,2.503,6.078c0.145,0.135,0.349,0.187,0.539,0.137c0.192-0.049,0.345-0.192,0.407-0.379
			c0.744-2.233,0.536-4.036-0.617-5.36c-0.344-0.395-0.759-0.722-1.219-0.995h15.849v-3.828c0.478-0.14,0.95-0.291,1.413-0.461
			c4.371-1.61,7.41-2.427,9.034-2.427c0.205,0,0.395-0.108,0.5-0.285c0.105-0.176,0.109-0.395,0.011-0.575
			c-0.596-1.092-1.521-4.978-2.265-8.099c-0.15-0.63-0.296-1.243-0.434-1.809c0.659,0.411,1.415,0.699,2.205,0.79
			c1.987,0.23,3.794-0.783,4.95-2.779c1.566-2.704,1.408-6.903-0.374-9.984C105.688,60.248,104.264,59.035,102.568,58.419z
			 M94.008,60.627c-0.687-0.896-1.418-1.663-2.184-2.217c0.754-0.552,1.475-1.31,2.153-2.194c0.851,0.959,1.901,1.745,3.186,2.211
			C95.892,58.895,94.852,59.676,94.008,60.627z M73.593,86.359c-0.083,1.369-0.356,2.682-0.771,3.938h-1.359
			c-0.725-0.046-1.43-0.039-2.085,0H47.352c-0.491-0.023-1.009-0.023-1.541,0h-1.695c-0.412-1.252-0.684-2.559-0.766-3.923
			c-0.011-0.177-0.102-0.339-0.247-0.441c-0.145-0.101-0.329-0.131-0.498-0.081c-5.974,1.77-11.348,2.081-16.021,0.942v-56.75
			c4.665-1.13,10.029-0.818,15.989,0.949c0.17,0.05,0.354,0.02,0.498-0.081c0.145-0.102,0.236-0.264,0.247-0.441
			c0.086-1.424,0.376-2.787,0.819-4.089h0.001c0.79,0.126,1.593,0.186,2.357,0.186c0.943,0,1.814-0.079,2.528-0.186h18.731
			c0.726,0.116,1.634,0.203,2.624,0.203c0.765,0,1.571-0.06,2.363-0.187c0.443,1.301,0.733,2.664,0.819,4.088
			c0.011,0.177,0.102,0.339,0.247,0.441c0.146,0.102,0.329,0.132,0.498,0.081c6.047-1.792,11.481-2.091,16.193-0.901v27.813
			c-0.138,0.149-0.185,0.355-0.127,0.552c-0.017,0.153,0.03,0.307,0.127,0.427v27.847c-4.705,1.181-10.128,0.879-16.162-0.908
			c-0.169-0.05-0.354-0.02-0.498,0.081C73.695,86.02,73.604,86.182,73.593,86.359z M58.469,96.774
			c-0.668-1.699-2.27-3.828-6.005-5.315h11.97C60.721,92.947,59.13,95.077,58.469,96.774z M19.708,58.416
			c1.29-0.466,2.343-1.254,3.196-2.215c0.693,0.904,1.431,1.677,2.204,2.232c-0.762,0.553-1.49,1.317-2.173,2.209
			C22.075,59.673,21.013,58.88,19.708,58.416z M25.422,57.207c-0.607-0.508-1.202-1.178-1.772-1.956
			c0.795-1.144,1.369-2.431,1.772-3.667V57.207z M25.422,59.662v5.502c-0.4-1.207-0.966-2.457-1.74-3.572
			C24.241,60.828,24.825,60.167,25.422,59.662z M47.857,19.86c0.077-0.041,0.149-0.095,0.203-0.172
			c0.036-0.051,0.055-0.108,0.073-0.164c2.393-2.889,5.278-5.281,7.709-7.134c1.358,1.712,2.229,3.973,1.82,6.194
			c-0.405,2.199-2.198,5.127-8.412,6.585c-0.099,0.019-0.211,0.033-0.316,0.05h-4.351C45.399,23.283,46.544,21.494,47.857,19.86z
			 M58.438,20.069c0.637,1.633,2.128,3.669,5.558,5.15H52.855C56.293,23.744,57.795,21.706,58.438,20.069z M68.747,19.539
			c0.018,0.056,0.037,0.113,0.073,0.164c0.054,0.077,0.126,0.131,0.204,0.172c1.31,1.63,2.452,3.414,3.267,5.344h-4.447
			c-0.061-0.011-0.129-0.018-0.188-0.03c-6.24-1.463-8.033-4.392-8.438-6.59c-0.409-2.221,0.462-4.482,1.82-6.194
			C63.469,14.258,66.354,16.651,68.747,19.539z M91.662,52.188c0.385,1.051,0.899,2.115,1.568,3.079
			c-0.506,0.691-1.031,1.299-1.568,1.782V52.188z M91.662,59.766c0.548,0.488,1.083,1.107,1.599,1.811
			c-0.688,0.99-1.21,2.086-1.599,3.165V59.766z M102.229,43.233c1.529-0.176,2.884,0.607,3.811,2.207
			c1.37,2.367,1.213,6.076-0.374,8.82c-1.298,2.244-3.364,3.481-5.817,3.468c-2.338-0.007-4-1.051-5.182-2.475
			c2.405-3.577,4.15-8.462,4.685-10.297C99.939,44.075,101.068,43.367,102.229,43.233z M92.642,30.764
			c3.901,1.437,6.723,2.243,8.576,2.447c-0.616,1.667-1.358,4.779-2.025,7.579c-0.343,1.442-0.668,2.803-0.907,3.665
			c-0.002,0.007-0.005,0.016-0.007,0.023c-0.155,0.26-0.289,0.529-0.375,0.81c-0.036,0.119-0.022,0.238,0.014,0.348
			c-0.751,2.243-2.211,5.823-3.984,8.596c-1.874-3.011-2.125-6.886-2.128-6.953c-0.115-2.656,0.184-4.774,0.873-6.27
			c1.082,0.163,4.332,0.381,6.12-2.478c0.094-0.15,0.114-0.334,0.055-0.501c-0.059-0.167-0.19-0.298-0.357-0.356
			c-1.903-0.664-3.712-0.464-5.094,0.563c-0.721,0.536-1.301,1.273-1.743,2.199V30.43C91.992,30.534,92.32,30.645,92.642,30.764z
			 M93.339,39.915c0.229-0.29,0.482-0.539,0.759-0.745c1.079-0.802,2.308-0.798,3.228-0.614
			C96.088,39.891,94.329,39.988,93.339,39.915z M90.5,28.912c-4.669-1.116-9.978-0.859-15.838,0.783
			c-0.121-1.146-0.363-2.25-0.699-3.314h0.624c0.138,0.094,0.311,0.135,0.485,0.085c0.062-0.018,0.114-0.051,0.164-0.085H90.5
			V28.912z M76.776,20.366c0.27,1.358,0.052,2.452-0.651,3.259c-0.229,0.262-0.502,0.491-0.81,0.688
			C75.329,23.265,75.609,21.786,76.776,20.366z M63.066,10.5c2.078-1.406,4.263-1.586,5.994-0.492
			c1.923,1.214,2.918,2.558,2.958,3.993c0.055,2.008-1.733,3.783-2.6,4.523c-2.395-2.825-5.21-5.162-7.602-6.989
			C62.214,11.142,62.635,10.792,63.066,10.5z M58.436,1.426c0.826,1.156,2.606,4.334,0.01,7.448
			C55.856,5.779,57.608,2.6,58.436,1.426z M57.911,10.846c0.184-0.136,0.348-0.258,0.519-0.384c0.177,0.131,0.348,0.258,0.539,0.399
			c0.355,0.262,0.735,0.542,1.129,0.836c-0.729,0.919-1.291,1.942-1.656,3.005c-0.365-1.068-0.929-2.096-1.661-3.02
			C57.176,11.388,57.556,11.108,57.911,10.846z M44.863,13.986c0.039-1.435,1.035-2.779,2.958-3.993
			c1.731-1.094,3.916-0.914,5.994,0.492c0.431,0.292,0.853,0.641,1.251,1.036c-2.392,1.826-5.207,4.163-7.602,6.988
			C46.596,17.769,44.808,15.994,44.863,13.986z M40.105,20.351c1.167,1.419,1.447,2.899,1.462,3.948
			c-0.308-0.198-0.582-0.426-0.81-0.688C40.052,22.803,39.834,21.71,40.105,20.351z M26.584,26.381h15.088
			c0.043,0.026,0.084,0.056,0.135,0.071c0.165,0.048,0.332,0.014,0.468-0.071h0.639c-0.334,1.059-0.574,2.158-0.695,3.299
			c-5.774-1.618-11.015-1.893-15.634-0.832V26.381z M15.663,33.196c1.853-0.203,4.674-1.009,8.576-2.446
			c0.388-0.143,0.784-0.271,1.184-0.392v10.529c-0.46-1.148-1.108-2.041-1.946-2.664c-1.381-1.027-3.191-1.227-5.094-0.563
			c-0.167,0.058-0.298,0.189-0.357,0.356c-0.059,0.167-0.038,0.351,0.055,0.501c1.788,2.86,5.038,2.641,6.12,2.478
			c0.689,1.497,0.988,3.617,0.873,6.276c-0.002,0.064-0.254,3.936-2.127,6.946c-1.774-2.772-3.234-6.353-3.985-8.596
			c0.037-0.11,0.051-0.228,0.014-0.348c-0.085-0.281-0.22-0.55-0.375-0.81c-0.002-0.007-0.005-0.016-0.007-0.023
			c-0.239-0.862-0.564-2.224-0.907-3.665C17.02,37.975,16.279,34.863,15.663,33.196z M23.542,39.9
			c-0.99,0.073-2.748-0.023-3.987-1.36c0.92-0.183,2.15-0.188,3.228,0.614C23.06,39.361,23.313,39.609,23.542,39.9z M11.216,54.245
			c-1.587-2.744-1.745-6.453-0.374-8.82c0.927-1.6,2.282-2.381,3.811-2.207c1.161,0.135,2.29,0.842,2.877,1.723
			c0.535,1.835,2.28,6.721,4.685,10.297c-1.182,1.424-2.843,2.467-5.182,2.475c-0.007,0-0.014,0-0.022,0
			C14.567,57.713,12.51,56.482,11.216,54.245z M14.683,73.626c-1.53,0.176-2.884-0.607-3.811-2.207
			c-1.37-2.367-1.213-6.076,0.374-8.82c1.295-2.237,3.352-3.468,5.795-3.468c0.007,0,0.015,0,0.022,0
			c2.338,0.007,4,1.051,5.182,2.475c-2.405,3.577-4.15,8.463-4.685,10.297C16.973,72.783,15.844,73.491,14.683,73.626z
			 M24.269,86.094c-3.901-1.437-6.723-2.243-8.576-2.447c0.616-1.667,1.358-4.779,2.025-7.579c0.343-1.442,0.668-2.803,0.907-3.665
			c0.002-0.007,0.005-0.016,0.007-0.023c0.155-0.26,0.289-0.529,0.374-0.81c0.036-0.119,0.022-0.238-0.014-0.348
			c0.751-2.243,2.211-5.823,3.984-8.596c1.874,3.011,2.125,6.886,2.128,6.953c0.116,2.656-0.184,4.774-0.873,6.27
			c-1.082-0.164-4.332-0.381-6.12,2.478c-0.094,0.15-0.114,0.334-0.055,0.501c0.059,0.167,0.19,0.298,0.357,0.356
			c0.737,0.257,1.461,0.385,2.151,0.385c1.09,0,2.097-0.319,2.943-0.948c0.82-0.609,1.456-1.477,1.915-2.588v10.444
			C25.033,86.359,24.648,86.234,24.269,86.094z M23.573,76.944c-0.229,0.29-0.482,0.539-0.759,0.745
			c-1.079,0.802-2.308,0.798-3.228,0.614C20.824,76.967,22.584,76.87,23.573,76.944z M26.584,87.988
			c4.627,1.069,9.878,0.797,15.665-0.824c0.114,1.081,0.339,2.124,0.646,3.133H26.584V87.988z M40.136,96.492
			c-0.27-1.358-0.053-2.452,0.651-3.259c0.229-0.262,0.502-0.491,0.81-0.688C41.583,93.593,41.302,95.073,40.136,96.492z
			 M45.679,91.459h1.73c0.673,0.037,1.308,0.109,1.848,0.21c6.24,1.463,8.033,4.392,8.438,6.59c0.409,2.221-0.462,4.482-1.82,6.194
			c-2.431-1.853-5.316-4.246-7.709-7.134c-0.018-0.056-0.037-0.113-0.073-0.164c-0.054-0.077-0.126-0.13-0.203-0.171
			c-1.327-1.652-2.483-3.462-3.3-5.421C44.949,91.512,45.313,91.479,45.679,91.459z M53.845,106.358
			c-2.078,1.406-4.263,1.585-5.993,0.492c-1.923-1.214-2.918-2.558-2.958-3.993c-0.055-2.008,1.733-3.783,2.6-4.524
			c2.395,2.826,5.21,5.162,7.602,6.989C54.698,105.717,54.277,106.066,53.845,106.358z M58.465,115.417
			c-0.832-1.171-2.59-4.343,0.012-7.448C61.061,111.073,59.287,114.258,58.465,115.417z M59.001,105.983
			c-0.192,0.141-0.362,0.268-0.539,0.399c-0.171-0.127-0.335-0.248-0.519-0.384c-0.355-0.262-0.735-0.542-1.129-0.836
			c0.733-0.924,1.297-1.952,1.661-3.02c0.365,1.063,0.927,2.086,1.656,3.005C59.735,105.441,59.356,105.721,59.001,105.983z
			 M72.049,102.842c-0.039,1.435-1.035,2.779-2.958,3.993c-1.73,1.093-3.915,0.914-5.994-0.492
			c-0.431-0.292-0.853-0.641-1.251-1.036c2.392-1.827,5.207-4.163,7.602-6.989C70.316,99.059,72.104,100.834,72.049,102.842z
			 M69.055,96.968c-0.077,0.041-0.149,0.095-0.203,0.172c-0.036,0.051-0.055,0.108-0.073,0.164
			c-2.393,2.889-5.278,5.281-7.708,7.134c-1.358-1.712-2.23-3.973-1.82-6.194c0.405-2.199,2.198-5.127,8.412-6.585
			c0.482-0.091,1.037-0.159,1.626-0.201h2.223c0.283,0.021,0.565,0.051,0.844,0.09C71.537,93.507,70.382,95.317,69.055,96.968z
			 M76.807,96.477c-1.167-1.419-1.447-2.899-1.462-3.948c0.308,0.198,0.582,0.426,0.81,0.688
			C76.86,94.025,77.077,95.119,76.807,96.477z M90.5,90.297H74.043c0.31-1.013,0.536-2.062,0.65-3.148
			c5.847,1.638,11.145,1.898,15.806,0.79V90.297z M101.249,83.633c-1.853,0.203-4.674,1.009-8.576,2.447
			c-0.333,0.123-0.67,0.237-1.012,0.343V76.345c0.445,0.956,1.036,1.713,1.774,2.262c0.846,0.629,1.853,0.948,2.943,0.948
			c0.69,0,1.413-0.128,2.151-0.385c0.167-0.058,0.298-0.189,0.357-0.356c0.059-0.167,0.038-0.351-0.055-0.501
			c-1.788-2.86-5.038-2.642-6.12-2.478c-0.689-1.497-0.988-3.617-0.873-6.276c0.002-0.064,0.254-3.936,2.127-6.947
			c1.774,2.772,3.234,6.353,3.985,8.596c-0.037,0.11-0.05,0.228-0.014,0.348c0.085,0.281,0.22,0.55,0.375,0.81
			c0.002,0.007,0.005,0.016,0.007,0.023c0.239,0.862,0.564,2.223,0.907,3.665C99.892,78.854,100.633,81.966,101.249,83.633z
			 M93.37,76.929c0.992-0.074,2.749,0.024,3.987,1.36c-0.92,0.184-2.149,0.188-3.228-0.614
			C93.852,77.468,93.599,77.219,93.37,76.929z M106.07,71.403c-0.927,1.601-2.282,2.38-3.811,2.207
			c-1.161-0.135-2.29-0.842-2.877-1.723c-0.535-1.835-2.28-6.721-4.685-10.298c1.182-1.423,2.843-2.467,5.182-2.474
			c0.007,0,0.014,0,0.022,0c2.443,0,4.501,1.231,5.795,3.468C107.283,65.327,107.441,69.036,106.07,71.403z"/>
		<path class="st0" d="M116.963,58.336c0.008-0.178-0.055-0.356-0.203-0.477c-5.742-4.676-10.29,0.083-10.335,0.131
			c-0.169,0.182-0.196,0.442-0.092,0.652c0.026,0.076,0.065,0.149,0.123,0.211c0.03,0.033,2.088,2.187,5.175,2.187
			c1.512,0,3.272-0.517,5.161-2.055C116.988,58.824,117.047,58.562,116.963,58.336z M107.682,58.407
			c1.062-0.883,4.085-2.791,7.921,0.027C111.759,61.232,108.716,59.27,107.682,58.407z"/>
	</g>
	<g>
		<path d="M36.739,55.016c-0.142,0-0.228,0.114-0.285,0.304l-1.709,6.717c-0.257,0.949-0.399,1.859-0.399,2.543
			c0,0.759,0.541,1.1,1.026,1.1c0.085,0,0.171,0,0.256,0c0.285,0,0.37,0.076,0.37,0.228c0,0.228-0.256,0.304-0.513,0.304
			c-0.684,0-1.823-0.114-2.136-0.114c-0.314,0-1.88,0.114-3.22,0.114c-0.37,0-0.541-0.076-0.541-0.304
			c0-0.152,0.142-0.228,0.399-0.228c0.2,0,0.456-0.038,0.684-0.076c1.31-0.228,1.88-1.67,2.393-3.567l6.467-23.565
			c0.342-1.252,0.456-1.48,0.627-1.48c0.171,0,0.285,0.19,0.627,1.366c0.427,1.442,4.9,17.114,6.638,22.882
			c1.025,3.378,1.852,3.984,2.45,4.212c0.427,0.189,0.883,0.228,1.111,0.228c0.171,0,0.313,0.038,0.313,0.228
			c0,0.228-0.256,0.304-0.57,0.304c-0.428,0-2.507,0-4.473-0.076c-0.541-0.038-0.855-0.038-0.855-0.265
			c0-0.152,0.086-0.228,0.2-0.266c0.171-0.076,0.342-0.417,0.171-1.024l-2.649-9.335c-0.057-0.152-0.114-0.228-0.256-0.228H36.739z
			 M42.494,53.65c0.143,0,0.143-0.114,0.114-0.266l-2.707-10.246c-0.142-0.569-0.285-0.569-0.427,0l-2.507,10.246
			c-0.057,0.19,0,0.266,0.085,0.266H42.494z"/>
		<path d="M55.119,48.527c0-5.92,0-6.982-0.057-8.196c-0.057-1.29-0.285-1.898-1.225-2.163c-0.228-0.076-0.712-0.114-0.969-0.114
			c-0.114,0-0.228-0.076-0.228-0.227c0-0.228,0.142-0.304,0.456-0.304c1.282,0,2.991,0.113,3.219,0.113
			c0.627,0,2.279-0.113,3.59-0.113c3.561,0,4.843,1.594,5.299,2.163c0.627,0.797,1.425,2.505,1.425,4.971
			c0,4.933-2.963,8.576-7.009,8.576c-0.142,0-0.456,0-0.598-0.038c-0.142,0-0.313-0.076-0.313-0.266
			c0-0.304,0.171-0.342,0.769-0.342c2.763,0,4.929-2.504,4.929-6.489c0-0.948-0.086-3.491-1.596-5.54
			c-1.51-2.049-3.248-1.897-3.903-1.897c-0.484,0-0.969,0.076-1.225,0.228c-0.171,0.076-0.228,0.342-0.228,0.721v15.597
			c0,3.643,0,6.64,0.142,8.235c0.085,1.101,0.256,1.935,1.111,2.087c0.399,0.076,1.026,0.152,1.282,0.152
			c0.171,0,0.228,0.114,0.228,0.228c0,0.19-0.142,0.304-0.456,0.304c-1.567,0-3.361-0.114-3.504-0.114
			c-0.085,0-1.88,0.114-2.735,0.114c-0.314,0-0.456-0.076-0.456-0.304c0-0.113,0.057-0.228,0.228-0.228
			c0.256,0,0.598-0.076,0.855-0.152c0.57-0.151,0.712-0.986,0.826-2.087c0.142-1.594,0.142-4.592,0.142-8.235V48.527z"/>
		<path d="M79.48,55.206c0,3.643,0,6.64,0.143,8.235c0.085,1.101,0.256,1.935,1.111,2.087c0.399,0.076,1.026,0.152,1.282,0.152
			c0.171,0,0.228,0.114,0.228,0.228c0,0.19-0.142,0.304-0.456,0.304c-1.567,0-3.362-0.114-3.504-0.114
			c-0.142,0-1.937,0.114-2.792,0.114c-0.313,0-0.456-0.076-0.456-0.304c0-0.113,0.057-0.228,0.228-0.228
			c0.256,0,0.598-0.076,0.855-0.152c0.57-0.151,0.712-0.986,0.826-2.087c0.142-1.594,0.142-4.592,0.142-8.235V39.155
			c-1.396,0.038-2.82,0.038-4.216,0.076c-1.766,0.038-2.45,0.304-2.906,1.214c-0.313,0.645-0.399,0.911-0.485,1.176
			c-0.085,0.304-0.171,0.38-0.285,0.38c-0.086,0-0.142-0.114-0.142-0.342c0-0.38,0.57-3.643,0.627-3.946
			c0.056-0.228,0.171-0.721,0.285-0.721c0.199,0,0.484,0.379,1.254,0.455c0.826,0.113,1.908,0.19,2.25,0.19h10.684
			c0.911,0,1.567-0.076,2.023-0.19c0.427-0.076,0.683-0.19,0.798-0.19c0.142,0,0.142,0.228,0.142,0.455
			c0,1.138-0.086,3.757-0.086,4.174c0,0.342-0.085,0.493-0.199,0.493c-0.142,0-0.199-0.114-0.228-0.645
			c0-0.151-0.028-0.265-0.028-0.417c-0.086-1.138-0.769-2.011-3.504-2.087c-1.197-0.038-2.394-0.038-3.59-0.076V55.206z"/>
	</g>
	<g>
		<path d="M42.652,79.45c-0.733,0-1.015,0.011-1.275,0.034c-0.53,0.022-0.7,0.192-0.733,0.643c-0.011,0.079-0.034,0.158-0.09,0.158
			c-0.045,0-0.079-0.034-0.079-0.181c-0.011-0.62-0.045-0.959-0.056-1.105c-0.011-0.09,0.011-0.09,0.056-0.09
			c0.18,0.034,0.553,0.045,0.891,0.045c0.079,0,0.09-0.022,0.158-0.124l2.392-6.317c0.135-0.338,0.192-0.417,0.27-0.417
			c0.056,0,0.102,0.079,0.203,0.304c0.203,0.485,1.771,4.456,2.606,6.441c0.034,0.079,0.079,0.113,0.169,0.113
			c0.214,0,0.834-0.022,1.049-0.056c0.056-0.011,0.079,0,0.056,0.079c-0.022,0.169-0.113,0.688-0.113,1.162
			c0,0.102-0.045,0.147-0.079,0.147c-0.068,0-0.079-0.057-0.09-0.147c-0.045-0.429-0.237-0.643-0.677-0.665
			c-0.293-0.023-0.868-0.023-1.286-0.023H42.652z M44.773,79.01c0.846,0,1.06-0.023,1.15-0.034c0.045-0.011,0.068-0.034,0.022-0.09
			c-0.553-1.387-1.241-3.373-1.951-5.177c-0.023-0.045-0.045-0.045-0.057-0.011L42.28,78.39c-0.091,0.237-0.192,0.451-0.192,0.53
			c0,0.045,0.033,0.045,0.056,0.056c0.18,0.023,0.474,0.034,1.06,0.034H44.773z"/>
		<path d="M49.7,75.006c0-1.477,0-1.748-0.023-2.053c-0.022-0.316-0.102-0.474-0.428-0.542c-0.068-0.011-0.18-0.023-0.271-0.023
			c-0.079,0-0.147-0.034-0.147-0.068c0-0.068,0.056-0.09,0.169-0.09c0.226,0,0.53,0.023,1.162,0.034c0.056,0,2.064,0,2.29-0.011
			c0.226-0.011,0.35-0.023,0.44-0.057c0.068-0.022,0.079-0.033,0.124-0.033c0.023,0,0.045,0.022,0.045,0.079
			c0,0.068-0.068,0.225-0.09,0.508c-0.011,0.192-0.022,0.372-0.033,0.587c0,0.102-0.023,0.169-0.079,0.169
			c-0.056,0-0.079-0.045-0.079-0.124c-0.011-0.169-0.045-0.282-0.079-0.361c-0.068-0.226-0.169-0.304-0.733-0.339
			c-0.147-0.011-1.263-0.022-1.286-0.022c-0.034,0-0.057,0.022-0.057,0.09v2.561c0,0.068,0.011,0.113,0.068,0.113
			c0.135,0,1.286-0.011,1.523-0.034c0.259-0.011,0.429-0.045,0.519-0.169c0.045-0.068,0.079-0.09,0.124-0.09
			c0.022,0,0.045,0.011,0.045,0.068c0,0.056-0.045,0.271-0.079,0.598c-0.034,0.316-0.034,0.541-0.045,0.688
			c-0.011,0.09-0.033,0.124-0.079,0.124c-0.056,0-0.068-0.068-0.068-0.147c0-0.068-0.011-0.18-0.034-0.271
			c-0.045-0.146-0.113-0.304-0.541-0.338c-0.26-0.022-1.173-0.045-1.353-0.045c-0.068,0-0.079,0.034-0.079,0.079v0.823
			c0,0.35-0.011,1.343,0,1.534c0.023,0.417,0.079,0.632,0.316,0.733c0.169,0.079,0.44,0.102,0.824,0.102
			c0.214,0,0.575,0.011,0.857-0.068c0.338-0.102,0.418-0.327,0.508-0.745c0.022-0.113,0.056-0.158,0.102-0.158
			c0.068,0,0.068,0.102,0.068,0.169c0,0.079-0.09,0.79-0.124,0.981c-0.045,0.226-0.124,0.248-0.496,0.248
			c-0.744,0-1.061-0.022-1.455-0.022c-0.395-0.011-0.914-0.034-1.331-0.034c-0.259,0-0.473,0.034-0.744,0.034
			c-0.102,0-0.158-0.023-0.158-0.079c0-0.045,0.045-0.079,0.102-0.079c0.068,0,0.147-0.011,0.226-0.033
			c0.203-0.045,0.338-0.192,0.361-0.891c0.011-0.384,0.023-0.846,0.023-1.703V75.006z"/>
		<path d="M56.556,75.536c0.519-0.463,1.749-1.635,2.256-2.188c0.542-0.598,0.587-0.654,0.587-0.778c0-0.079-0.045-0.135-0.18-0.18
			c-0.079-0.022-0.124-0.045-0.124-0.09c0-0.033,0.023-0.068,0.113-0.068c0.068,0,0.406,0.034,0.767,0.034
			c0.339,0,0.959-0.034,1.106-0.034c0.158,0,0.18,0.023,0.18,0.068c0,0.045-0.034,0.079-0.124,0.09
			c-0.18,0.011-0.418,0.057-0.553,0.113c-0.271,0.09-0.418,0.214-1.004,0.744c-0.823,0.744-1.805,1.703-2.301,2.155
			c0.609,0.632,2.437,2.437,2.91,2.865c0.79,0.722,1.173,0.925,1.624,1.027c0.124,0.023,0.068,0.011,0.259,0.033
			c0.102,0.011,0.158,0.034,0.158,0.09c0,0.045-0.057,0.068-0.18,0.068h-0.733c-0.88,0-1.105-0.102-1.557-0.418
			c-0.508-0.361-2.313-2.211-3.204-3.26v0.891c0,0.869-0.011,1.658,0.045,2.064c0.045,0.327,0.09,0.451,0.384,0.519
			c0.147,0.034,0.383,0.045,0.429,0.045c0.102,0.011,0.124,0.034,0.124,0.079c0,0.045-0.045,0.079-0.158,0.079
			c-0.575,0-1.229-0.034-1.286-0.034c-0.034,0-0.699,0.034-1.015,0.034c-0.102,0-0.18-0.023-0.18-0.079
			c0-0.045,0.045-0.079,0.146-0.079c0.056,0,0.18-0.011,0.271-0.033c0.192-0.045,0.226-0.271,0.26-0.542
			c0.056-0.406,0.056-1.207,0.056-2.053v-1.692c0-1.489,0-1.76-0.023-2.064c-0.022-0.304-0.09-0.474-0.327-0.519
			c-0.113-0.023-0.192-0.023-0.26-0.034c-0.079-0.011-0.124-0.034-0.124-0.079c0-0.056,0.045-0.079,0.169-0.079
			c0.35,0,0.993,0.034,1.026,0.034c0.045,0,0.699-0.034,1.015-0.034c0.113,0,0.169,0.023,0.169,0.079
			c0,0.045-0.034,0.068-0.124,0.079c-0.068,0.011-0.124,0.011-0.203,0.023c-0.327,0.045-0.361,0.215-0.384,0.542
			c-0.022,0.304-0.011,0.564-0.011,2.053V75.536z"/>
		<path d="M62.228,75.841c0-1.5,1.162-3.745,3.948-3.745c2.234,0,3.937,1.331,3.937,3.598c0,2.155-1.591,3.914-3.993,3.914
			C63.356,79.608,62.228,77.555,62.228,75.841z M69.053,75.976c0-2.267-1.399-3.53-2.944-3.53c-1.568,0-2.831,0.97-2.831,3.102
			c0,2.211,1.23,3.677,3.125,3.677C67.157,79.224,69.053,78.841,69.053,75.976z"/>
		<path d="M72.389,75.006c0-1.557,0-1.76-0.022-2.064c-0.023-0.293-0.113-0.474-0.429-0.542c-0.079-0.011-0.26-0.023-0.35-0.023
			c-0.022,0-0.068-0.022-0.068-0.056c0-0.068,0.057-0.09,0.158-0.09c0.485,0,1.105,0.034,1.173,0.034
			c0.237,0,0.812-0.034,1.275-0.034c1.241,0,1.692,0.406,1.85,0.541c0.214,0.192,0.496,0.632,0.496,1.263
			c0,1.252-1.038,2.166-2.448,2.166c-0.045,0-0.158,0-0.214-0.011c-0.045,0-0.102-0.023-0.102-0.068c0-0.09,0.068-0.09,0.282-0.09
			c0.891,0,1.636-0.609,1.636-1.602c0-0.147,0.034-0.823-0.485-1.365c-0.553-0.587-1.196-0.53-1.399-0.53
			c-0.147,0-0.316,0.022-0.384,0.056c-0.056,0.023-0.068,0.102-0.068,0.18v3.903c0,0.868,0,1.681,0.045,2.087
			c0.034,0.271,0.091,0.496,0.395,0.53c0.135,0.023,0.361,0.045,0.451,0.045c0.045,0,0.068,0.023,0.068,0.057
			c0,0.056-0.045,0.09-0.158,0.09c-0.587,0-1.219-0.034-1.275-0.034c-0.011,0-0.677,0.034-0.993,0.034
			c-0.102,0-0.158-0.023-0.158-0.09c0-0.034,0.023-0.057,0.079-0.057c0.079,0,0.203-0.022,0.293-0.045
			c0.203-0.034,0.26-0.259,0.293-0.53c0.056-0.406,0.056-1.218,0.056-2.064V75.006z"/>
	</g>
</g>
</svg>
