<?xml version="1.0" standalone="no"?>
<!DOCTYPE svg PUBLIC "-//W3C//DTD SVG 20010904//EN"
 "http://www.w3.org/TR/2001/REC-SVG-20010904/DTD/svg10.dtd">
<svg version="1.0" xmlns="http://www.w3.org/2000/svg"
 height="569.000000pt" viewBox="0 0 900.000000 569.000000"
 preserveAspectRatio="xMidYMid meet">

<g transform="translate(0.000000,569.000000) scale(0.100000,-0.100000)"
fill="#ed2529" stroke="none">
<path d="M4415 5252 c-27 -10 -212 -108 -410 -219 -598 -334 -912 -509 -1290
-718 -376 -209 -431 -248 -455 -319 -7 -21 -10 -66 -8 -101 3 -52 10 -72 38
-113 19 -28 222 -261 450 -519 392 -443 663 -750 899 -1017 133 -151 241 -245
373 -324 274 -165 603 -259 973 -278 l120 -6 185 127 c202 138 1130 769 1435
976 105 71 212 146 240 167 90 68 116 151 75 232 -26 51 -68 78 -216 141 -508
214 -963 556 -1364 1023 -145 170 -133 154 -409 522 -220 292 -289 368 -375
408 -79 37 -188 45 -261 18z m197 -195 c49 -29 99 -88 296 -352 155 -206 330
-431 363 -465 8 -8 57 -64 110 -125 102 -116 273 -286 399 -395 307 -268 614
-457 1028 -635 23 -10 41 -23 39 -29 -2 -5 -87 -66 -189 -135 -102 -70 -307
-209 -457 -311 -149 -102 -335 -229 -414 -282 -246 -167 -407 -277 -572 -389
-184 -126 -171 -122 -392 -94 -383 50 -733 204 -943 415 -36 36 -200 218 -365
405 -338 384 -436 495 -450 511 -5 6 -86 98 -180 204 -93 107 -227 258 -297
337 -147 165 -162 185 -154 210 8 24 -91 -33 1131 648 308 171 621 346 695
387 74 42 153 85 175 97 54 29 128 28 177 -2z"/>
<path d="M3940 2421 c0 -26 167 -141 308 -211 206 -103 420 -162 672 -185 l65
-5 -57 23 c-130 55 -186 102 -250 209 -73 123 -118 143 -294 128 -132 -10
-228 -3 -361 28 -46 11 -83 16 -83 13z"/>
<path d="M2269 3089 c-180 -92 -280 -148 -293 -165 -29 -40 -33 -106 -8 -148
11 -19 143 -175 294 -348 151 -172 413 -473 582 -668 306 -352 411 -473 431
-494 6 -6 129 -148 275 -316 400 -462 433 -498 485 -521 46 -21 107 -24 155
-7 29 10 207 121 565 352 44 29 252 162 462 297 478 305 455 290 869 554 193
123 355 233 366 248 26 36 27 94 3 130 -14 22 -149 129 -202 161 -8 4 -91 -47
-215 -132 -112 -76 -286 -195 -388 -264 -102 -69 -261 -178 -355 -242 l-170
-117 -110 6 c-520 28 -969 194 -1262 465 -45 42 -155 164 -472 524 -68 78
-151 173 -186 211 -174 196 -398 450 -460 522 -38 45 -75 83 -81 86 -5 3 -134
-58 -285 -134z"/>
</g>
</svg>
