<?xml version="1.0" standalone="no"?>
<!DOCTYPE svg PUBLIC "-//W3C//DTD SVG 20010904//EN"
 "http://www.w3.org/TR/2001/REC-SVG-20010904/DTD/svg10.dtd">
<svg version="1.0" xmlns="http://www.w3.org/2000/svg"
 height="683.000000pt" viewBox="0 0 683.000000 683.000000"
 preserveAspectRatio="xMidYMid meet">

<g transform="translate(0.000000,683.000000) scale(0.100000,-0.100000)"
fill="#ed2529" stroke="none">
<path d="M2138 5475 c-1126 -348 -2061 -642 -2078 -651 -60 -36 -77 -129 -34
-187 22 -30 980 -534 1182 -622 l132 -59 -624 -197 c-343 -108 -638 -205 -655
-215 -73 -43 -80 -147 -14 -206 11 -10 296 -163 635 -340 338 -178 616 -327
617 -332 1 -5 -270 -94 -603 -197 -333 -103 -619 -195 -635 -205 -61 -36 -78
-129 -35 -187 21 -29 2529 -1348 2574 -1355 29 -4 1581 470 1614 494 54 37 72
119 39 175 -10 16 -37 39 -61 50 -40 20 -46 20 -100 7 -31 -8 -373 -113 -759
-233 l-702 -218 -978 513 c-1160 608 -1165 611 -1160 616 5 6 1140 355 1157
356 8 1 222 -107 475 -240 284 -150 471 -242 488 -242 15 0 588 173 1273 385
685 212 1251 385 1258 385 13 0 1173 -603 1187 -617 5 -5 -269 -94 -609 -198
-586 -180 -619 -192 -654 -226 -34 -33 -38 -42 -38 -89 0 -47 4 -56 39 -91 32
-33 45 -39 80 -39 46 0 1577 469 1618 495 32 22 63 74 63 108 0 33 -20 75 -47
99 -10 10 -296 163 -635 340 -338 178 -615 328 -615 333 0 6 272 94 605 197
332 103 615 195 629 203 32 22 63 74 63 108 0 33 -20 75 -47 99 -10 10 -297
163 -637 341 -339 179 -616 328 -615 333 1 5 274 93 607 196 332 103 615 195
629 203 33 22 63 74 63 110 0 41 -32 90 -77 118 -21 13 -590 312 -1265 666
-847 444 -1239 644 -1265 647 -29 2 -525 -148 -2085 -631z m3041 -157 c1281
-671 1168 -610 1145 -620 -39 -16 -2033 -628 -2156 -662 l-126 -35 -179 54
c-262 78 -344 114 -496 218 -150 102 -273 237 -410 452 -37 58 -85 81 -143 71
-27 -6 -49 -22 -88 -64 -198 -220 -366 -335 -596 -411 -167 -55 -222 -62 -520
-68 l-275 -5 -125 60 c-140 67 -699 357 -712 370 -6 6 3653 1148 3691 1151 8
0 454 -229 990 -511z m-2304 -943 c139 -175 305 -314 498 -416 l90 -47 -49 -8
c-95 -16 -647 -10 -811 9 -175 20 -350 49 -478 79 l-90 22 50 13 c279 78 484
185 664 348 40 36 74 65 76 63 1 -2 24 -30 50 -63z m2866 -631 c321 -168 588
-310 592 -314 5 -4 -13 -14 -40 -22 -26 -8 -861 -266 -1855 -573 l-1807 -557
-998 522 c-1106 579 -1146 601 -1140 607 3 2 289 93 638 203 l633 199 96 -26
97 -25 -12 -36 c-28 -80 34 -172 117 -172 75 0 138 60 138 130 0 23 6 24 81
10 131 -24 381 -50 573 -60 288 -16 644 5 944 54 79 13 82 12 82 -6 0 -37 29
-88 62 -108 70 -42 153 -17 189 58 18 36 20 49 11 82 l-10 40 57 16 c92 25
320 92 414 121 l87 27 16 -22 c19 -28 65 -52 99 -52 68 0 123 48 134 117 6 35
8 37 91 64 47 15 94 27 106 28 12 1 284 -137 605 -305z"/>
<path d="M4644 3656 c-37 -17 -70 -57 -79 -96 -15 -66 39 -142 110 -156 69
-13 155 59 155 130 0 89 -105 159 -186 122z"/>
<path d="M2924 3361 c-84 -51 -80 -181 8 -227 113 -58 237 56 183 170 -33 70
-125 97 -191 57z"/>
<path d="M1855 3246 c-57 -25 -86 -96 -66 -159 32 -96 149 -121 222 -48 40 40
46 90 20 145 -34 68 -105 93 -176 62z"/>
<path d="M3631 3242 c-119 -64 -72 -245 64 -245 72 0 122 46 131 120 9 72 -56
143 -131 143 -17 0 -46 -8 -64 -18z"/>
<path d="M2652 2862 c-12 -4 -35 -20 -52 -35 -98 -93 3 -260 133 -218 124 41
121 215 -4 251 -37 11 -43 11 -77 2z"/>
<path d="M4580 1593 c-105 -73 -72 -226 53 -240 88 -10 152 52 144 141 -4 42
-10 55 -41 83 -30 28 -43 33 -84 33 -28 0 -57 -7 -72 -17z"/>
</g>
</svg>
