<?xml version="1.0" standalone="no"?>
<!DOCTYPE svg PUBLIC "-//W3C//DTD SVG 20010904//EN"
 "http://www.w3.org/TR/2001/REC-SVG-20010904/DTD/svg10.dtd">
<svg version="1.0" xmlns="http://www.w3.org/2000/svg"
 height="512.000000pt" viewBox="0 -204 920 920"
 preserveAspectRatio="xMidYMid meet">

<g transform="translate(0.000000,512.000000) scale(0.100000,-0.100000)"
fill="#000000" stroke="none">
<path d="M4505 4972 c-27 -10 -252 -131 -500 -269 -247 -138 -697 -389 -1000
-558 -302 -168 -564 -317 -583 -332 -77 -58 -103 -184 -58 -278 27 -56 1368
-1584 1507 -1717 275 -263 706 -426 1207 -457 l117 -7 920 624 c506 344 939
640 962 658 45 37 83 104 83 149 0 45 -39 114 -79 141 -21 13 -89 46 -152 73
-410 173 -762 410 -1098 736 -220 214 -362 383 -698 830 -214 285 -278 355
-360 392 -77 35 -195 42 -268 15z m190 -191 c49 -22 116 -100 317 -371 341
-460 573 -722 860 -972 298 -258 666 -487 1005 -624 40 -16 73 -31 73 -34 -1
-6 -1774 -1212 -1802 -1224 -23 -11 -225 6 -353 30 -285 53 -560 175 -753 334
-91 75 -1512 1687 -1512 1716 0 12 10 28 23 37 21 14 1893 1058 1982 1106 49
26 107 27 160 2z"/>
<path d="M4036 2129 c66 -74 286 -202 471 -274 156 -60 424 -116 549 -114 l49
0 -55 18 c-132 43 -205 98 -271 207 -34 57 -64 94 -91 111 l-40 27 -226 1
c-200 1 -236 4 -302 23 -97 28 -109 28 -84 1z"/>
<path d="M2373 2817 c-144 -73 -273 -143 -287 -156 -37 -35 -52 -91 -38 -138
9 -27 136 -180 443 -533 237 -272 685 -786 995 -1141 309 -355 577 -658 594
-672 64 -54 159 -61 241 -19 42 21 1860 1181 2155 1374 88 58 114 114 82 183
-10 22 -178 158 -212 171 -7 3 -262 -165 -567 -373 l-554 -378 -100 3 c-316 9
-652 90 -910 219 -222 110 -351 214 -548 440 -430 494 -1013 1152 -1022 1152
-5 0 -128 -59 -272 -132z"/>
</g>
</svg>
