<?xml version="1.0" standalone="no"?>
<!DOCTYPE svg PUBLIC "-//W3C//DTD SVG 20010904//EN"
 "http://www.w3.org/TR/2001/REC-SVG-20010904/DTD/svg10.dtd">
<svg version="1.0" xmlns="http://www.w3.org/2000/svg"
 height="256.000000pt" viewBox="0 0 256.000000 256.000000"
 preserveAspectRatio="xMidYMid meet">

<g transform="translate(0.000000,256.000000) scale(0.100000,-0.100000)"
fill="#000000" stroke="none">
<path d="M958 2381 c-378 -220 -358 -206 -358 -236 0 -54 29 -42 360 149 177
103 327 186 333 186 7 0 129 -68 272 -150 143 -83 266 -149 274 -148 19 4 35
32 29 50 -4 8 -62 47 -130 86 -67 38 -190 109 -272 156 -84 48 -161 86 -175
86 -15 0 -154 -75 -333 -179z"/>
<path d="M1942 2168 c-19 -19 -14 -46 11 -61 12 -8 37 -23 55 -34 l33 -20
-156 -76 c-204 -100 -204 -95 4 -198 l154 -76 -370 -212 c-204 -116 -377 -211
-384 -211 -8 0 -23 7 -33 15 -38 29 -84 7 -72 -33 8 -24 91 -65 121 -60 13 3
190 100 393 216 203 117 376 212 383 212 8 0 59 -26 114 -58 83 -48 101 -62
103 -84 3 -22 -4 -32 -35 -52 -103 -66 -955 -546 -970 -546 -10 0 -152 77
-316 171 -187 106 -307 169 -320 167 -15 -2 -23 -11 -25 -30 -3 -25 14 -36
315 -208 286 -163 322 -181 355 -177 23 3 167 80 403 215 l366 210 115 -66
c175 -102 205 -70 -361 -394 -259 -148 -484 -277 -502 -285 -32 -16 -32 -16
-152 51 -131 73 -165 79 -159 28 3 -23 21 -37 123 -94 91 -52 129 -68 159 -68
32 0 101 36 408 211 l369 211 112 -64 c102 -59 112 -68 112 -94 0 -26 -9 -34
-80 -76 -44 -25 -90 -54 -102 -63 -26 -18 -30 -47 -8 -65 12 -10 31 -3 106 37
124 65 159 97 166 149 8 63 -15 96 -100 145 -39 23 -85 49 -100 59 l-29 17
101 57 c108 61 131 87 131 149 0 49 -28 79 -136 143 l-96 56 89 49 c109 62
133 85 140 136 9 65 -14 94 -122 158 l-95 56 0 194 0 194 -27 19 c-41 28 -158
92 -169 92 -6 0 -15 -5 -22 -12z m145 -394 c-2 -3 -55 20 -118 50 l-114 54
115 54 115 55 3 -105 c1 -57 1 -106 -1 -108z"/>
<path d="M355 2034 c-146 -84 -175 -110 -175 -157 1 -46 23 -68 138 -133 56
-32 102 -61 102 -64 0 -3 -39 -27 -87 -55 -100 -58 -126 -87 -126 -142 0 -58
22 -83 128 -143 52 -30 95 -56 95 -59 0 -4 -43 -30 -95 -60 -105 -61 -128 -86
-128 -144 0 -55 27 -85 122 -138 107 -60 110 -64 73 -83 -38 -20 -45 -40 -23
-67 l18 -22 59 32 59 33 194 -112 c107 -61 201 -109 209 -108 20 4 36 32 30
50 -3 8 -147 94 -319 193 -173 98 -322 185 -332 193 -36 31 -17 54 103 123 63
37 120 65 126 62 14 -5 44 23 44 43 0 16 -35 39 -180 120 -56 31 -104 64 -107
72 -10 26 11 45 118 109 l104 62 30 -19 c17 -10 146 -84 287 -165 268 -152
298 -163 298 -109 0 29 39 5 -463 292 -257 147 -396 232 -395 241 2 8 63 48
135 90 73 42 135 84 139 94 7 22 -12 47 -35 46 -9 0 -74 -34 -146 -75z"/>
<path d="M236 751 c-36 -40 -40 -106 -8 -148 23 -30 748 -443 777 -443 33 0
44 38 18 60 -11 9 -181 108 -378 220 -196 112 -359 210 -362 217 -3 8 3 29 13
48 15 28 16 36 5 49 -18 21 -44 20 -65 -3z"/>
<path d="M1643 270 c-183 -105 -340 -190 -349 -190 -9 0 -46 16 -81 36 -74 41
-107 42 -111 2 -3 -24 5 -31 81 -72 46 -25 97 -46 112 -46 29 0 700 375 725
405 17 21 3 55 -23 55 -12 0 -171 -86 -354 -190z"/>
</g>
</svg>
