<?xml version="1.0" encoding="UTF-8"?> <!-- Svg Vector Icons : http://www.onlinewebfonts.com/icon --> <svg fill="#ed2529" xmlns="http://www.w3.org/2000/svg" xmlns:xlink="http://www.w3.org/1999/xlink" x="0px" y="0px" viewBox="0 0 1000 1000" xml:space="preserve"> <metadata> Svg Vector Icons : http://www.onlinewebfonts.com/icon </metadata> <g><g transform="translate(0.000000,511.000000) scale(0.100000,-0.100000)"><path d="M4107.4,4976.3c-304.3-45-627.9-351.4-692.2-655.7l-17.2-83.6l-1112.2-10.7c-1082.2-10.7-1118.6-12.8-1238.6-57.9c-216.4-83.6-362.2-180-544.3-360c-137.2-141.4-190.7-212.1-259.3-355.7c-152.2-321.4-143.6-81.4-143.6-3587.3c0-3550.8-10.7-3276.5,154.3-3598C368-3949,646.6-4223.3,860.9-4330.4c306.4-150,169.3-143.6,2661.5-143.6h2245.8v300v300l-2275.8,4.3l-2277.9,6.4l-111.4,51.4c-145.7,64.3-287.2,218.6-347.2,372.9l-45,124.3v3190.8V3067l45,124.3c60,154.3,201.4,308.6,347.2,372.9l111.4,51.4l1088.6,6.4l1086.5,6.4V1798.4c0-1551.5,4.3-1845.1,32.1-1950.1c96.4-375,400.7-677.2,771.5-775.7c150-38.6,1170-47.1,1362.9-10.7c295.7,55.7,591.5,291.5,739.3,591.5l83.6,167.1l6.4,1902.9l4.3,1905.1l1099.3-6.4c1075.7-6.4,1099.3-6.4,1197.9-53.6c147.8-68.6,261.4-182.1,330-332.1l62.2-135l6.4-1600.8l6.4-1602.9h297.9h300v1570.8c0,1757.2,2.1,1712.2-154.3,2012.2c-152.1,295.7-435,546.4-762.9,677.2l-143.6,57.9l-1116.5,6.4l-1118.6,6.4l-15,77.1c-38.6,207.9-259.3,488.6-467.1,593.6c-62.1,30-171.4,66.4-242.2,77.1C5523.9,4999.9,4270.3,4999.9,4107.4,4976.3z M5716.7,4359.1c70.7-47.1,72.9-94.3,72.9-2269.4V-72.4l-47.1-94.3c-92.1-180-105-182.1-842.2-182.1c-610.7,0-647.2,2.1-717.9,45c-102.9,60-167.1,160.7-182.1,293.6c-6.4,62.2-10.7,1054.3-6.4,2207.2l6.4,2097.9l51.4,40.7c47.1,38.6,94.3,40.7,846.5,40.7C5335.3,4376.3,5703.9,4367.7,5716.7,4359.1z"></path><path d="M4716,718.3c-124.3-105-160.7-272.1-87.9-413.6c105-210,400.7-231.4,518.6-36.4c51.4,83.6,57.9,267.9,10.7,360C5078.2,780.5,4846.7,827.6,4716,718.3z"></path><path d="M6775.4-1516.8v-878.6h-214.3h-214.3v-310.7v-310.7h214.3h214.3v-246.4v-246.4h-214.3h-214.3v-300v-300h214.3h214.3v-332.1V-4774h300h300v332.2v332.1h1039.3H9454v300v300H8414.7H7375.4v244.3v244.3l735,10.7c814.3,10.7,867.9,19.3,1140,160.7c321.4,169.3,582.9,529.3,638.6,880.7c87.9,572.2-362.1,1167.9-981.5,1298.6c-120,25.7-349.3,32.1-1140,32.1h-992.2V-1516.8z M8974-1298.2c192.9-87.9,291.4-225,319.3-447.9c34.3-257.1-77.1-484.3-285-580.7l-122.1-57.9l-754.3-6.4l-756.4-6.4v580.7v580.7l745.7-6.4C8845.4-1248.9,8866.8-1251,8974-1298.2z"></path></g></g> </svg> 