<svg xmlns="http://www.w3.org/2000/svg" viewBox="0 0 24 24" fill="#E1323D"><path d="M15.684 0H8.316C3.718 0 0 3.718 0 8.316v7.368C0 20.282 3.718 24 8.316 24h7.368C20.282 24 24 20.282 24 15.684V8.316C24 3.718 20.282 0 15.684 0zm3.554 16.728h-1.896c-.504 0-.66-.384-1.56-1.296-.78-.78-1.128-.876-1.332-.876-.264 0-.372.108-.372.648v1.104c0 .348-.12.528-1.008.528-1.488 0-3.144-.912-4.296-2.604-1.644-2.112-2.052-3.504-2.052-3.816 0-.168.072-.324.54-.324h1.896c.408 0 .564.18.732.612.792 2.016 2.112 3.792 2.652 3.792.204 0 .3-.108.3-.636v-2.484c-.072-1.104-.648-1.2-.648-1.596 0-.192.156-.36.348-.36h2.988c.36 0 .48.192.48.612v3.3c0 .36.156.48.252.48.204 0 .372-.12.732-.48.72-.816 1.26-1.944 1.26-1.944.072-.168.192-.312.372-.312h1.896c.552 0 .648.312.528.648-.288.972-2.136 3.456-2.136 3.456-.168.276-.216.408 0 .672.156.216.672.648 1.008 1.044.468.516.828.972 1.02 1.332.192.36.072.54-.42.54z"/></svg>
